<mxfile host="65bd71144e">
    <diagram id="z8wOh6mG3ctQaSaYqsU-" name="PÃ¡gina-1">
        <mxGraphModel dx="1139" dy="642" grid="1" gridSize="10" guides="1" tooltips="1" connect="1" arrows="1" fold="1" page="1" pageScale="1" pageWidth="827" pageHeight="1169" math="0" shadow="0">
            <root>
                <mxCell id="0"/>
                <mxCell id="1" parent="0"/>
                <mxCell id="29" style="edgeStyle=none;html=1;endArrow=open;endFill=0;" parent="1" source="2" edge="1">
                    <mxGeometry relative="1" as="geometry">
                        <mxPoint x="370" y="240" as="targetPoint"/>
                    </mxGeometry>
                </mxCell>
                <mxCell id="2" value="" style="rounded=0;whiteSpace=wrap;html=1;" parent="1" vertex="1">
                    <mxGeometry x="480" y="80" width="240" height="320" as="geometry"/>
                </mxCell>
                <mxCell id="3" value="" style="rounded=0;whiteSpace=wrap;html=1;" parent="1" vertex="1">
                    <mxGeometry x="100" y="80" width="250" height="320" as="geometry"/>
                </mxCell>
                <mxCell id="7" value="+ getzodiacSign: string&lt;br&gt;+calculateAge: number" style="text;html=1;strokeColor=none;fillColor=none;align=left;verticalAlign=middle;whiteSpace=wrap;rounded=0;" parent="1" vertex="1">
                    <mxGeometry x="120" y="330" width="210" height="50" as="geometry"/>
                </mxCell>
                <mxCell id="8" value="" style="rounded=0;whiteSpace=wrap;html=1;" parent="1" vertex="1">
                    <mxGeometry x="100" y="130" width="250" height="200" as="geometry"/>
                </mxCell>
                <mxCell id="11" value="" style="rounded=0;whiteSpace=wrap;html=1;" parent="1" vertex="1">
                    <mxGeometry x="480" y="140" width="240" height="100" as="geometry"/>
                </mxCell>
                <mxCell id="14" value="-name:String&lt;br&gt;-phone:Number&lt;br&gt;-celll:Number&lt;br&gt;-foto:Void&lt;br&gt;-birthdate:Number&lt;br&gt;-email:String&lt;br&gt;-cep:Number&lt;br&gt;-cidade:String&lt;br&gt;-instagram:String&lt;br&gt;-github:String&lt;br&gt;-age:Number&lt;br&gt;-ZodiacSign:Stringr&lt;br&gt;-id:Int" style="text;html=1;strokeColor=none;fillColor=none;align=left;verticalAlign=middle;whiteSpace=wrap;rounded=0;" parent="1" vertex="1">
                    <mxGeometry x="120" y="130" width="180" height="200" as="geometry"/>
                </mxCell>
                <mxCell id="15" value="-this.contatos: []" style="text;html=1;strokeColor=none;fillColor=none;align=left;verticalAlign=middle;whiteSpace=wrap;rounded=0;" parent="1" vertex="1">
                    <mxGeometry x="500" y="160" width="170" height="30" as="geometry"/>
                </mxCell>
                <mxCell id="16" value="+adicionarContato: void&lt;br&gt;+&amp;nbsp;listarContatos: List&lt;br&gt;+&amp;nbsp;getContactById(id): void" style="text;html=1;strokeColor=none;fillColor=none;align=left;verticalAlign=middle;whiteSpace=wrap;rounded=0;" parent="1" vertex="1">
                    <mxGeometry x="490" y="250" width="230" height="90" as="geometry"/>
                </mxCell>
                <mxCell id="19" value="Contato" style="text;strokeColor=none;fillColor=none;html=1;fontSize=24;fontStyle=1;verticalAlign=middle;align=center;" parent="1" vertex="1">
                    <mxGeometry x="170" y="90" width="100" height="40" as="geometry"/>
                </mxCell>
                <mxCell id="21" value="ListaContatos" style="text;strokeColor=none;fillColor=none;html=1;fontSize=24;fontStyle=1;verticalAlign=middle;align=center;" parent="1" vertex="1">
                    <mxGeometry x="560" y="90" width="100" height="40" as="geometry"/>
                </mxCell>
                <mxCell id="26" value="1..*" style="text;html=1;strokeColor=none;fillColor=none;align=center;verticalAlign=middle;whiteSpace=wrap;rounded=0;" parent="1" vertex="1">
                    <mxGeometry x="340" y="150" width="60" height="30" as="geometry"/>
                </mxCell>
                <mxCell id="27" value="1" style="text;html=1;strokeColor=none;fillColor=none;align=center;verticalAlign=middle;whiteSpace=wrap;rounded=0;" parent="1" vertex="1">
                    <mxGeometry x="430" y="150" width="60" height="30" as="geometry"/>
                </mxCell>
            </root>
        </mxGraphModel>
    </diagram>
</mxfile>